# xmcd
#
# Track frame offsets: 
#        150
#        13962
#        30065
#        43912
#        63050
#        75837
#        95038
#        107358
#        126362
#        142512
#        153343
#        178414
#        194318
#        206379
#        218511
#        234333
#        246908
#        261234
#
# Disc length: 3773 seconds
#
# Revision: 0
# Processed by: cddbd v1.5.1PL2 Copyright (c) Steve Scherf et al.
# Submitted via: ExactAudioCopy v0.95b4
#
DISCID=e40ebb12
DTITLE=Various Artist - Country Hits Vol. 4
DYEAR=1900
DGENRE=country
TTITLE0=Windfall - I Couldn't Leave You If I Tried
TTITLE1=Sunset - Two Pina Coladas
TTITLE2=Dixie Aces - Who Did You Call Darling
TTITLE3=Trend - I Swear
TTITLE4=Mark Lavender - She's Smiling To Me
TTITLE5=Silverstone - Helping Me Get Over It
TTITLE6=Hennie Korsten - Raz-Maz-Taz Polka
TTITLE7=Something Else - Pick A Bale Of Cotton
TTITLE8=Michael and Els Weston - Sticks And Stones
TTITLE9=Windfall - Timber
TTITLE10=Sunset - La Mucara
TTITLE11=Trend - Love Of My Life
TTITLE12=Mark Lavender - The Fireman
TTITLE13=Silverstone - I Ain't Giving Up On Love
TTITLE14=Something Else - Mercury Blues
TTITLE15=Michael and Els Weston - Touch Me, Turn Me On
TTITLE16=Hennie Korsten - Waacht Op Mèn 
TTITLE17=Dixie Aces - All You Ever Do Is Bring Me Down
EXTD=
EXTT0=
EXTT1=
EXTT2=
EXTT3=
EXTT4=
EXTT5=
EXTT6=
EXTT7=
EXTT8=
EXTT9=
EXTT10=
EXTT11=
EXTT12=
EXTT13=
EXTT14=
EXTT15=
EXTT16=
EXTT17=
PLAYORDER=
